<svg xmlns="http://www.w3.org/2000/svg" width="28.056" height="28.056" viewBox="0 0 28.056 28.056">
  <g id="그룹_460" data-name="그룹 460" transform="translate(-949.588 -1542.972)">
    <path id="패스_33" data-name="패스 33" d="M24.841,28.056H3.215A3.217,3.217,0,0,1,0,24.841V3.215A3.217,3.217,0,0,1,3.215,0H24.841a3.217,3.217,0,0,1,3.215,3.215V24.841A3.217,3.217,0,0,1,24.841,28.056ZM3.215,1.754A1.463,1.463,0,0,0,1.754,3.215V24.841A1.463,1.463,0,0,0,3.215,26.3H24.841A1.463,1.463,0,0,0,26.3,24.841V3.215a1.463,1.463,0,0,0-1.461-1.461Z" transform="translate(949.588 1542.972)" fill="#099"/>
    <path id="패스_34" data-name="패스 34" d="M12.127,28.056a.877.877,0,0,1-.877-.877V.877A.877.877,0,1,1,13,.877v26.3A.877.877,0,0,1,12.127,28.056Z" transform="translate(951.477 1542.972)" fill="#099"/>
    <path id="패스_35" data-name="패스 35" d="M27.179,13H.877a.877.877,0,1,1,0-1.754h26.3a.877.877,0,1,1,0,1.754Z" transform="translate(949.588 1544.873)" fill="#099"/>
    <path id="패스_36" data-name="패스 36" d="M6.127,9.845a.877.877,0,0,1-.877-.877V4.877A.877.877,0,1,1,7,4.877V8.968A.877.877,0,0,1,6.127,9.845Z" transform="translate(950.202 1543.648)" fill="#099"/>
    <path id="패스_37" data-name="패스 37" d="M8.468,7.5H4.377a.877.877,0,0,1,0-1.754H8.468a.877.877,0,1,1,0,1.754Z" transform="translate(949.902 1543.944)" fill="#099"/>
    <path id="패스_38" data-name="패스 38" d="M4.877,20.676a.877.877,0,0,1-.62-1.5L7.18,16.256A.877.877,0,1,1,8.42,17.5L5.5,20.419A.874.874,0,0,1,4.877,20.676Z" transform="translate(949.988 1545.676)" fill="#099"/>
    <path id="패스_39" data-name="패스 39" d="M7.8,20.676a.87.87,0,0,1-.62-.257L4.257,17.5a.877.877,0,1,1,1.24-1.24L8.42,19.179a.877.877,0,0,1-.621,1.5Z" transform="translate(949.988 1545.676)" fill="#099"/>
    <path id="패스_40" data-name="패스 40" d="M21.137,7.254H15.877a.877.877,0,1,1,0-1.754h5.261a.877.877,0,0,1,0,1.754Z" transform="translate(952.381 1543.901)" fill="#099"/>
    <path id="패스_41" data-name="패스 41" d="M21.137,20.254H15.877a.877.877,0,1,1,0-1.754h5.261a.877.877,0,0,1,0,1.754Z" transform="translate(952.381 1546.099)" fill="#099"/>
    <path id="패스_42" data-name="패스 42" d="M21.137,17.254H15.877a.877.877,0,1,1,0-1.754h5.261a.877.877,0,0,1,0,1.754Z" transform="translate(952.381 1545.591)" fill="#099"/>
  </g>
</svg>
