<svg id="certificate" xmlns="http://www.w3.org/2000/svg" width="23.729" height="28.927" viewBox="0 0 23.729 28.927">
  <path id="패스_501" data-name="패스 501" d="M64.237,242a4.236,4.236,0,0,0-2.542,7.625v3.392a.847.847,0,0,0,1.226.758l1.316-.658,1.316.658a.847.847,0,0,0,1.226-.758v-3.392A4.236,4.236,0,0,0,64.237,242Zm.847,9.646-.469-.234a.848.848,0,0,0-.758,0l-.469.234v-1.257a4.247,4.247,0,0,0,1.695,0Zm-.847-2.866a2.542,2.542,0,1,1,2.542-2.542A2.545,2.545,0,0,1,64.237,248.78Zm0,0" transform="translate(-56.61 -228.328)" fill="#099"/>
  <path id="패스_502" data-name="패스 502" d="M.847,0A.847.847,0,0,0,0,.847V28.079a.847.847,0,0,0,.847.847H16.1a.851.851,0,0,0,.6-.248L23.48,21.9a.852.852,0,0,0,.248-.6V.847A.847.847,0,0,0,22.881,0Zm.847,1.695H22.034V20.452H16.1a.847.847,0,0,0-.847.847v5.932H1.695Zm19.14,20.452-3.886,3.886V22.147Zm0,0" fill="#099"/>
</svg>
