<svg xmlns="http://www.w3.org/2000/svg" width="32.785" height="23.566" viewBox="0 0 32.785 23.566">
  <g id="graduation-hat" transform="translate(0 -71.981)">
    <path id="패스_500" data-name="패스 500" d="M32.169,78.725,16.8,72.065a1.025,1.025,0,0,0-.815,0L.616,78.725a1.025,1.025,0,0,0,0,1.88L6.146,83v6.4c0,3.447,4.5,6.148,10.246,6.148s10.246-2.7,10.246-6.148V83l1.025-.444V93.5a1.025,1.025,0,1,0,2.049,0V81.67l2.457-1.064A1.025,1.025,0,0,0,32.169,78.725Zm-15.777-4.6,12.792,5.543-1.015.44L16.519,78.649a1.025,1.025,0,0,0-.254,2.033l8.206,1.026-8.079,3.5L3.6,79.665Zm8.2,15.277c0,.965-.792,1.959-2.174,2.727a13.9,13.9,0,0,1-12.046,0C8.988,91.358,8.2,90.365,8.2,89.4V83.89l7.789,3.375a1.025,1.025,0,0,0,.815,0l7.789-3.375Z" fill="#099"/>
  </g>
</svg>
