<svg xmlns="http://www.w3.org/2000/svg" width="28.056" height="29.028" viewBox="0 0 28.056 29.028">
  <g id="그룹_459" data-name="그룹 459" transform="translate(-734.631 -1542.972)">
    <path id="패스_33" data-name="패스 33" d="M24.841,28.056H3.215A3.217,3.217,0,0,1,0,24.841V3.215A3.217,3.217,0,0,1,3.215,0H24.841a3.217,3.217,0,0,1,3.215,3.215V24.841A3.217,3.217,0,0,1,24.841,28.056ZM3.215,1.754A1.463,1.463,0,0,0,1.754,3.215V24.841A1.463,1.463,0,0,0,3.215,26.3H24.841A1.463,1.463,0,0,0,26.3,24.841V3.215a1.463,1.463,0,0,0-1.461-1.461Z" transform="translate(734.631 1542.972)" fill="#099"/>
    <text id="_" data-name="ㄱ" transform="translate(736.703 1557)" fill="#099" font-size="15" font-family="AppleSDGothicNeo-Bold, Apple SD Gothic Neo" font-weight="700"><tspan x="0" y="0">ㄱ</tspan></text>
    <text id="_2" data-name="ㄴ" transform="translate(737.703 1567)" fill="#099" font-size="15" font-family="AppleSDGothicNeo-Bold, Apple SD Gothic Neo" font-weight="700"><tspan x="0" y="0">ㄴ</tspan></text>
    <text id="_3" data-name="ㄷ" transform="translate(747.703 1562)" fill="#099" font-size="15" font-family="AppleSDGothicNeo-Bold, Apple SD Gothic Neo" font-weight="700"><tspan x="0" y="0">ㄷ</tspan></text>
  </g>
</svg>
