<svg xmlns="http://www.w3.org/2000/svg" width="30.794" height="30.324" viewBox="0 0 30.794 30.324">
  <g id="그룹_421" data-name="그룹 421" transform="translate(-521.715 -1541.578)">
    <path id="패스_43" data-name="패스 43" d="M12.725,27.248a.948.948,0,0,1-.932-1.112l.67-3.8a.951.951,0,0,1,.263-.505l9.382-9.382a2.531,2.531,0,0,1,1.258-.739,1.758,1.758,0,0,1,1.645.516l1.563,1.563a2.215,2.215,0,0,1,0,3.127L17.192,26.3a.951.951,0,0,1-.505.263l-3.8.67a.917.917,0,0,1-.166.015Zm3.8-1.617h.013Zm-2.247-2.669-.383,2.169,2.169-.383,9.169-9.171a.318.318,0,0,0,0-.447l-1.552-1.552c-.013.024-.107.083-.235.211Z" transform="translate(525.29 1544.654)" fill="#099"/>
    <path id="패스_44" data-name="패스 44" d="M12.648,26.534H3.475A3.478,3.478,0,0,1,0,23.059V3.475A3.478,3.478,0,0,1,3.475,0h14.53A3.478,3.478,0,0,1,21.48,3.475V16.186a.948.948,0,0,1-1.9,0V3.475A1.582,1.582,0,0,0,18.005,1.9H3.475A1.582,1.582,0,0,0,1.9,3.475V23.059a1.582,1.582,0,0,0,1.579,1.579h9.173a.948.948,0,0,1,0,1.9Z" transform="translate(521.715 1541.578)" fill="#099"/>
    <path id="패스_45" data-name="패스 45" d="M15.951,9.9h-12a.948.948,0,0,1,0-1.9h12a.948.948,0,0,1,0,1.9Z" transform="translate(522.501 1543.686)" fill="#099"/>
    <path id="패스_46" data-name="패스 46" d="M10.9,13.9H3.948a.948.948,0,1,1,0-1.9H10.9a.948.948,0,1,1,0,1.9Z" transform="translate(522.4 1544.74)" fill="#099"/>
    <path id="패스_47" data-name="패스 47" d="M9.633,5.9H3.948a.948.948,0,0,1,0-1.9H9.633a.948.948,0,0,1,0,1.9Z" transform="translate(522.376 1542.632)" fill="#099"/>
  </g>
</svg>
