<svg xmlns="http://www.w3.org/2000/svg" xmlns:xlink="http://www.w3.org/1999/xlink" width="100" height="19" viewBox="0 0 100 19">
  <defs>
    <clipPath id="clip-path">
      <rect id="사각형_133" data-name="사각형 133" width="100" height="19" fill="none"/>
    </clipPath>
  </defs>
  <g id="그룹_237" data-name="그룹 237" clip-path="url(#clip-path)">
    <path id="패스_393" data-name="패스 393" d="M281.97,3.662h-4.715c-.005,0-.008-.006-.014-.006h-2.978a.146.146,0,0,0-.146.146V22a.147.147,0,0,0,.146.146,3.125,3.125,0,0,0,3.124-3.108v-3.8h4.753a5.805,5.805,0,0,0,5.791-6.345,5.92,5.92,0,0,0-5.961-5.229m-4.582,3.253h4.753a2.534,2.534,0,1,1,0,5.067h-4.753Z" transform="translate(-235.398 -3.142)" fill="#273c55"/>
    <path id="패스_394" data-name="패스 394" d="M398.714,3.662H394c-.005,0-.008-.006-.014-.006h-2.978a.146.146,0,0,0-.146.146V22a.146.146,0,0,0,.146.146,3.125,3.125,0,0,0,3.124-3.108v-3.8h4.752a5.806,5.806,0,0,0,5.791-6.345,5.92,5.92,0,0,0-5.962-5.229m-4.582,3.253h4.752a2.534,2.534,0,1,1,0,5.067h-4.752Z" transform="translate(-335.653 -3.142)" fill="#273c55"/>
    <path id="패스_395" data-name="패스 395" d="M519.891,19.323h-5.6V4.361a.147.147,0,0,0-.146-.146h-2.978a.147.147,0,0,0-.146.146v18.07a.147.147,0,0,0,.146.146h11.706a.147.147,0,0,0,.146-.146,3.126,3.126,0,0,0-3.125-3.108" transform="translate(-438.835 -3.623)" fill="#273c55"/>
    <path id="패스_396" data-name="패스 396" d="M608.929,2.516,606.594.678a.149.149,0,0,0-.206.024L600.844,7.67,595.3.7a.149.149,0,0,0-.206-.024l-2.336,1.838a.147.147,0,0,0-.054.1.144.144,0,0,0,.031.108l6.474,8.138V19.41a.146.146,0,0,0,.146.146,3.125,3.125,0,0,0,3.124-3.108V10.859l6.474-8.139a.146.146,0,0,0-.024-.2" transform="translate(-508.984 -0.556)" fill="#273c55"/>
    <path id="패스_397" data-name="패스 397" d="M136.2,6.928H133.64a.147.147,0,0,0-.146.146V9.783c-.027-.035-.05-.073-.078-.108a8.406,8.406,0,0,0-5.653-3.129A8.494,8.494,0,0,0,120.1,9.738a7.616,7.616,0,0,0-1.159,2.01,8.428,8.428,0,0,0,6.878,11.5,8.766,8.766,0,0,0,.988.057,8.378,8.378,0,0,0,5.233-1.819,8.468,8.468,0,0,0,1.452-1.478v3.343a.147.147,0,0,0,.146.146,2.708,2.708,0,0,0,2.708-2.693V7.073a.146.146,0,0,0-.146-.146m-4,8.593a5.376,5.376,0,0,1-2.028,3.624,5.431,5.431,0,1,1-3.4-9.669,5.67,5.67,0,0,1,.638.037,5.419,5.419,0,0,1,3.644,2.017,5.364,5.364,0,0,1,1.142,3.991" transform="translate(-101.623 -5.576)" fill="#1f7675"/>
    <path id="패스_398" data-name="패스 398" d="M166.58,36.829a2.284,2.284,0,1,1-2.284-2.272,2.278,2.278,0,0,1,2.284,2.272" transform="translate(-139.128 -29.701)" fill="#1f7675"/>
    <path id="패스_399" data-name="패스 399" d="M156.177,76.41h-2.929V74.188a1.414,1.414,0,1,0-2.806,0V76.41h-2.929V74.188a4.335,4.335,0,1,1,8.664,0Z" transform="translate(-126.677 -59.888)" fill="#1f7675"/>
    <path id="패스_400" data-name="패스 400" d="M15.029.886c-2.282-1.274-3.967-1.192-7.513.368C4.116,2.752.346.642.307.62A.205.205,0,0,0,0,.8v.318H0V18.668a3.819,3.819,0,0,0,3.829-3.809V12.517a8.745,8.745,0,0,0,1.021.063,6.991,6.991,0,0,0,2.832-.57c2.87-1.263,3.777-1.517,5.424-.9a.2.2,0,0,0,.277-.191V7.552a.208.208,0,0,0-.133-.191c-1.83-.7-2.926-.422-5.74.915a6.683,6.683,0,0,1-3.682.575V5.535a7.448,7.448,0,0,0,.763.042c.141,0,.285,0,.429-.013A6.979,6.979,0,0,0,7.968,4.6a7.208,7.208,0,0,1,3.614-1.027h.028A4.915,4.915,0,0,1,14.791,4.65a.205.205,0,0,0,.344-.154V1.065a.208.208,0,0,0-.106-.179" transform="translate(0 -0.001)" fill="#1f7675"/>
  </g>
</svg>
