<svg xmlns="http://www.w3.org/2000/svg" xmlns:xlink="http://www.w3.org/1999/xlink" width="40" height="40" viewBox="0 0 40 40">
  <defs>
    <clipPath id="clip-path">
      <rect id="사각형_225" data-name="사각형 225" width="18.065" height="21.439" fill="none"/>
    </clipPath>
  </defs>
  <g id="icon_ap" transform="translate(0 -0.002)">
    <g id="그룹_341" data-name="그룹 341" transform="translate(0 0.002)">
      <circle id="타원_9" data-name="타원 9" cx="20" cy="20" r="20"/>
    </g>
    <g id="그룹_340" data-name="그룹 340" transform="translate(10.839 8.484)">
      <g id="그룹_339" data-name="그룹 339" clip-path="url(#clip-path)">
        <path id="패스_420" data-name="패스 420" d="M13.541.429a4.576,4.576,0,0,1-1.175,3A3.985,3.985,0,0,1,9.047,5.07a3.009,3.009,0,0,1-.023-.405,4.683,4.683,0,0,1,1.245-3.031A4.853,4.853,0,0,1,11.785.493,4.528,4.528,0,0,1,13.518,0c.012.141.023.288.023.429m4.136,16.279a11.767,11.767,0,0,1-1.151,2.074,10.69,10.69,0,0,1-1.486,1.8,2.884,2.884,0,0,1-1.909.84A4.8,4.8,0,0,1,11.368,21a5.03,5.03,0,0,0-1.9-.417A5.3,5.3,0,0,0,7.52,21a5.174,5.174,0,0,1-1.686.441,2.694,2.694,0,0,1-1.95-.864,10.928,10.928,0,0,1-1.551-1.856,12.945,12.945,0,0,1-1.645-3.26A11.97,11.97,0,0,1,0,11.567,7.069,7.069,0,0,1,.934,7.854a5.464,5.464,0,0,1,1.95-1.974,5.29,5.29,0,0,1,2.638-.746,6.188,6.188,0,0,1,2.044.476,6.437,6.437,0,0,0,1.621.476,9.737,9.737,0,0,0,1.8-.564,6,6,0,0,1,2.444-.435,5.183,5.183,0,0,1,4.059,2.138,4.515,4.515,0,0,0-2.4,4.1,4.523,4.523,0,0,0,1.486,3.413,4.864,4.864,0,0,0,1.486.975c-.129.347-.253.676-.388.993" transform="translate(0)" fill="#fff"/>
      </g>
    </g>
  </g>
</svg>
