<svg id="icon_gg" xmlns="http://www.w3.org/2000/svg" width="40" height="40" viewBox="0 0 40 40">
  <g id="그룹_345" data-name="그룹 345">
    <path id="패스_422" data-name="패스 422" d="M20,0A20,20,0,1,1,0,20,20,20,0,0,1,20,0Z" fill="#f8f8f7"/>
    <g id="google" transform="translate(7.886 7.886)">
      <path id="패스_412" data-name="패스 412" d="M54.6,302.661a11.992,11.992,0,0,1-18.2-3.084l.787-3.629,3.49-.648a6.44,6.44,0,0,0,6.125,4.533,6.3,6.3,0,0,0,3.752-1.222l3.354.512Z" transform="translate(-34.676 -280.993)" fill="#59c36a"/>
      <path id="패스_413" data-name="패스 413" d="M263.8,369.25l-.7-3.538-3.354-.512A6.3,6.3,0,0,1,256,366.422v5.732A12.108,12.108,0,0,0,263.8,369.25Z" transform="translate(-243.639 -347.582)" fill="#00a66c"/>
      <g id="Connected_Home_1_" transform="translate(0 6.147)">
        <g id="그룹_337" data-name="그룹 337">
          <g id="그룹_336" data-name="그룹 336">
            <g id="그룹_335" data-name="그룹 335">
              <path id="패스_414" data-name="패스 414" d="M5.732,132.539A6.623,6.623,0,0,0,6,134.4l-4.277,4.277a11.791,11.791,0,0,1,0-12.278l3.433.591L6,130.677A6.621,6.621,0,0,0,5.732,132.539Z" transform="translate(0 -126.4)" fill="#ffda2d"/>
            </g>
          </g>
        </g>
      </g>
      <path id="패스_415" data-name="패스 415" d="M253.837,198.842a12.108,12.108,0,0,1-4.325,9.223l-4.05-4.05a6.288,6.288,0,0,0,1.975-2.331h-5.727a.7.7,0,0,1-.711-.71v-4.263a.7.7,0,0,1,.711-.711h11.217a.7.7,0,0,1,.7.583A12.05,12.05,0,0,1,253.837,198.842Z" transform="translate(-229.266 -186.397)" fill="#4086f4"/>
      <path id="패스_416" data-name="패스 416" d="M261.727,201.684a6.288,6.288,0,0,1-1.975,2.331l4.05,4.05a12.011,12.011,0,0,0,4.112-11.482.7.7,0,0,0-.7-.583H256v5.684Z" transform="translate(-243.555 -186.397)" fill="#4175df"/>
      <path id="패스_417" data-name="패스 417" d="M54.8,3.387a.717.717,0,0,1-.2.526L51.563,6.939a.7.7,0,0,1-.924.071A6.356,6.356,0,0,0,46.8,5.732a6.44,6.44,0,0,0-6.125,4.533L36.4,5.987A11.984,11.984,0,0,1,54.547,2.861a.747.747,0,0,1,.256.526Z" transform="translate(-34.676 0)" fill="#ff641a"/>
      <path id="패스_418" data-name="패스 418" d="M259.837,7.011a.7.7,0,0,0,.924-.071L263.8,3.913a.717.717,0,0,0,.2-.526.747.747,0,0,0-.256-.526A12.09,12.09,0,0,0,256,0V5.732A6.356,6.356,0,0,1,259.837,7.011Z" transform="translate(-243.636 0)" fill="#f03800"/>
    </g>
  </g>
</svg>
