<?xml version="1.0" encoding="utf-8"?>
<!-- Generator: Adobe Illustrator 25.0.1, SVG Export Plug-In . SVG Version: 6.00 Build 0)  -->
<svg version="1.1" id="레이어_1" xmlns="http://www.w3.org/2000/svg" xmlns:xlink="http://www.w3.org/1999/xlink" x="0px"
	 y="0px" viewBox="0 0 100 20" style="enable-background:new 0 0 100 20;" xml:space="preserve">
<style type="text/css">
	.st0{fill:#384C67;}
	.st1{fill:#238787;}
</style>
<g>
	<path class="st0" d="M46.57,0.97l-4.71,0c-0.01,0-0.01-0.01-0.01-0.01h-2.98c-0.08,0-0.15,0.07-0.15,0.15v0.01V4.1v5.39v2.98v6.94
		c0,0.08,0.07,0.15,0.15,0.15h0c1.72,0,3.12-1.41,3.12-3.12v-3.82h4.75c3.39,0,6.12-2.92,5.79-6.38C52.25,3.21,49.6,0.97,46.57,0.97
		z M41.99,4.24h4.75c1.4,0,2.55,1.14,2.55,2.55s-1.14,2.55-2.55,2.55h-4.75V4.24z"/>
	<path class="st0" d="M63.06,0.97l-4.71,0c-0.01,0-0.01-0.01-0.01-0.01h-2.98c-0.08,0-0.15,0.07-0.15,0.15v0.01V4.1v5.39v2.98v6.94
		c0,0.08,0.07,0.15,0.15,0.15h0c1.72,0,3.12-1.41,3.12-3.12v-3.82h4.75c3.39,0,6.12-2.92,5.79-6.38
		C68.74,3.21,66.09,0.97,63.06,0.97z M58.48,4.24h4.75c1.4,0,2.55,1.14,2.55,2.55s-1.14,2.55-2.55,2.55h-4.75V4.24z"/>
	<path class="st0" d="M81.06,16.23h-5.6V1.19c0-0.08-0.07-0.15-0.15-0.15h-2.98c-0.08,0-0.15,0.07-0.15,0.15v18.17
		c0,0.08,0.07,0.15,0.15,0.15h11.71c0.08,0,0.15-0.07,0.15-0.15v0C84.18,17.64,82.77,16.23,81.06,16.23z"/>
	<path class="st0" d="M99.94,2.42l-2.34-1.85c-0.06-0.05-0.15-0.04-0.21,0.02L91.86,7.6L86.32,0.6c-0.05-0.06-0.14-0.07-0.21-0.02
		l-2.34,1.85c-0.03,0.02-0.05,0.06-0.05,0.1c0,0.04,0.01,0.08,0.03,0.11l6.47,8.18v8.6c0,0.08,0.07,0.15,0.15,0.15
		c1.72,0,3.12-1.41,3.12-3.12v-5.62l6.47-8.18C100.02,2.56,100.01,2.47,99.94,2.42z"/>
	<path class="st1" d="M34.58,1.81h-2.56c-0.08,0-0.15,0.07-0.15,0.15v2.72c-0.03-0.04-0.05-0.07-0.08-0.11
		c-1.4-1.77-3.41-2.89-5.65-3.15c-2.91-0.34-5.75,0.82-7.66,3.21c-0.49,0.61-0.88,1.29-1.16,2.02c-2.09,5.42,1.52,10.94,6.88,11.56
		c0.33,0.04,0.66,0.06,0.99,0.06c1.91,0,3.72-0.63,5.23-1.83c0.55-0.44,1.03-0.94,1.45-1.49v3.36c0,0.08,0.07,0.15,0.15,0.15l0,0
		c1.49,0,2.71-1.22,2.71-2.71V1.96C34.72,1.87,34.66,1.81,34.58,1.81z M30.58,10.45c-0.17,1.45-0.89,2.74-2.03,3.64
		c-1.14,0.91-2.57,1.31-4.01,1.14c-2.98-0.35-5.13-3.05-4.79-6.04c0.17-1.45,0.89-2.74,2.03-3.64c0.97-0.77,2.14-1.18,3.37-1.18
		c0.21,0,0.42,0.01,0.64,0.04c1.45,0.17,2.74,0.89,3.64,2.03C30.34,7.58,30.75,9,30.58,10.45z"/>
	<circle class="st1" cx="25.17" cy="7.61" r="2.28"/>
	<path class="st1" d="M29.5,17.06h-2.93v-2.23c0-0.88-0.63-1.6-1.4-1.6c-0.77,0-1.4,0.72-1.4,1.6v2.23h-2.93v-2.23
		c0-2.5,1.94-4.53,4.33-4.53s4.33,2.03,4.33,4.53V17.06z"/>
	<path class="st1" d="M15.03,1.34c-2.28-1.28-3.97-1.2-7.51,0.37C4.12,3.22,0.35,1.1,0.31,1.07C0.24,1.03,0.15,1.04,0.09,1.08
		C0.03,1.12,0,1.19,0,1.26v0.32l0,0v17.64h0c2.11,0,3.83-1.71,3.83-3.83v-2.35c0.33,0.04,0.67,0.06,1.02,0.06
		c0.92,0,1.89-0.15,2.83-0.57c2.87-1.27,3.78-1.52,5.42-0.9c0.06,0.02,0.13,0.02,0.19-0.02c0.06-0.04,0.09-0.1,0.09-0.17l0-3.39
		c0-0.08-0.05-0.16-0.13-0.19c-1.83-0.71-2.93-0.42-5.74,0.92C6.23,9.38,4.95,9.48,3.83,9.35V6.01c0.25,0.03,0.5,0.04,0.76,0.04
		c0.14,0,0.28,0,0.43-0.01c1.24-0.08,2.11-0.53,2.95-0.97c0.97-0.5,1.97-1.02,3.61-1.03c0.01,0,0.02,0,0.03,0
		c1.98,0,3.13,1.03,3.18,1.08c0.06,0.06,0.15,0.07,0.22,0.04c0.07-0.03,0.12-0.11,0.12-0.19l0-3.45
		C15.14,1.45,15.09,1.38,15.03,1.34z"/>
</g>
</svg>
